<svg width="1920" height="712" viewBox="0 0 1920 712" fill="none" xmlns="http://www.w3.org/2000/svg">
<rect x="578.126" y="-332.968" width="410" height="277" rx="12" transform="rotate(15.8309 578.126 -332.968)" fill="#1F1F1F"/>
<rect x="1001.44" y="-212.936" width="410" height="277" rx="12" transform="rotate(15.8309 1001.44 -212.936)" fill="#131313"/>
<rect x="1424.75" y="-92.9042" width="410" height="277" rx="12" transform="rotate(15.8309 1424.75 -92.9042)" fill="#1F1F1F"/>
<rect x="1848.06" y="27.1278" width="410" height="277" rx="12" transform="rotate(15.8309 1848.06 27.1278)" fill="#131313"/>
<rect x="494.376" y="-37.6123" width="410" height="277" rx="12" transform="rotate(15.8309 494.376 -37.6123)" fill="#131313"/>
<rect x="71.0645" y="-157.644" width="410" height="277" rx="12" transform="rotate(15.8309 71.0645 -157.644)" fill="#1F1F1F"/>
<rect x="917.687" y="82.4197" width="410" height="277" rx="12" transform="rotate(15.8309 917.687 82.4197)" fill="#1F1F1F"/>
<rect x="1341" y="202.452" width="410" height="277" rx="12" transform="rotate(15.8309 1341 202.452)" fill="#131313"/>
<rect x="1764.31" y="322.484" width="410" height="277" rx="12" transform="rotate(15.8309 1764.31 322.484)" fill="#1F1F1F"/>
<rect x="410.627" y="257.744" width="410" height="277" rx="12" transform="rotate(15.8309 410.627 257.744)" fill="#1F1F1F"/>
<rect x="-12.6846" y="137.712" width="410" height="277" rx="12" transform="rotate(15.8309 -12.6846 137.712)" fill="#131313"/>
<rect x="833.938" y="377.776" width="410" height="277" rx="12" transform="rotate(15.8309 833.938 377.776)" fill="#131313"/>
<rect x="1257.25" y="497.808" width="410" height="277" rx="12" transform="rotate(15.8309 1257.25 497.808)" fill="#1F1F1F"/>
<rect x="1680.56" y="617.84" width="410" height="277" rx="12" transform="rotate(15.8309 1680.56 617.84)" fill="#131313"/>
<rect x="326.877" y="553.099" width="410" height="277" rx="12" transform="rotate(15.8309 326.877 553.099)" fill="#131313"/>
<rect x="-96.4346" y="433.067" width="410" height="277" rx="12" transform="rotate(15.8309 -96.4346 433.067)" fill="#1F1F1F"/>
<rect x="750.188" y="673.131" width="410" height="277" rx="12" transform="rotate(15.8309 750.188 673.131)" fill="#1F1F1F"/>
</svg>
