<svg width="235" height="76" viewBox="0 0 235 76" fill="none" xmlns="http://www.w3.org/2000/svg">
<path d="M76.1235 37.62C76.1235 42.71 74.0235 47.63 72.1835 52.06C70.2835 56.65 67.4935 60.87 64.0335 64.33C60.5735 67.79 56.4335 70.76 51.8435 72.66C47.4135 74.5 42.4235 76 37.3335 76C32.2435 76 27.1435 74.75 22.7135 72.91C18.2835 71.07 14.9935 66.87 11.5335 63.41C8.07349 59.95 4.20349 56.71 2.30349 52.12C0.463489 47.69 0.0934904 42.7 0.0934904 37.61C0.0934904 32.52 -0.50651 27.12 1.33349 22.7C3.23349 18.11 7.25349 14.44 10.7135 10.99C14.1735 7.53 18.0035 3.92 22.5935 2.02C27.0235 0.18 32.2535 0 37.3435 0C42.4335 0 47.3535 0.92 51.7835 2.76C56.3735 4.66 60.7935 7.25 64.2535 10.71C67.7135 14.17 70.7135 18.42 72.6135 23.01C74.4535 27.44 76.1335 32.53 76.1335 37.62H76.1235Z" fill="#6FC7BA"/>
<path d="M47.9938 15.9199L39.9338 17.1199L42.2338 32.7199L25.3438 19.7199L20.3838 26.2099L35.1938 37.6199L20.3838 49.0199L25.3538 55.5099L42.2338 42.5099L39.9338 58.1199L47.9938 59.3099L51.1938 37.6199L47.9938 15.9199Z" fill="white"/>
<path d="M142.203 31C138.183 31 134.383 32.17 131.813 33.79C131.313 34.13 131.253 34.41 131.483 34.91L133.103 38.43C133.383 39.04 133.773 39.04 134.333 38.71C136.233 37.65 138.693 36.7 141.313 36.7C142.593 36.7 143.773 37.03 144.383 37.82C144.943 38.49 145.163 39.44 145.163 40.72V41.28C142.143 41.5 138.123 41.95 135.053 43.29C132.373 44.52 130.413 46.47 130.413 49.77C130.413 52.28 131.363 54.3 132.923 55.58C134.433 56.92 136.553 57.65 138.843 57.65C141.413 57.65 143.363 57.26 145.663 55.81H145.883V56.26C145.883 56.71 146.273 57.1 146.773 57.1H151.693C152.143 57.1 152.533 56.71 152.533 56.26V40.73C152.533 37.49 151.693 35.48 150.303 33.92C148.123 31.52 144.773 31.01 142.203 31.01V31ZM145.163 51.11C143.883 51.89 142.533 52.17 141.253 52.17C139.183 52.17 137.453 51.33 137.453 49.55C137.453 46.81 141.813 46.37 145.163 46.25V51.11Z" fill="#1A1A1A"/>
<path d="M173.493 42.9502C171.703 42.0602 170.083 41.5502 168.293 40.8302C167.003 40.3302 165.833 39.7702 165.833 38.6502C165.833 37.3602 166.953 36.8602 168.463 36.8602C170.083 36.8602 171.983 37.2502 174.213 38.4802C174.663 38.7002 174.993 38.6502 175.223 38.2002L177.233 34.0702C177.453 33.6802 177.453 33.2302 176.893 32.9502C174.883 31.8302 172.313 30.9902 168.233 30.9902C161.643 30.9902 158.013 33.9502 158.013 38.6402C158.013 41.8802 159.413 44.0002 162.143 45.3402C163.933 46.2302 165.883 46.8502 167.503 47.5702C168.903 48.1902 169.903 48.6302 169.903 49.8602C169.903 51.2002 168.783 51.8702 166.943 51.8702C164.543 51.8702 162.863 51.0902 160.633 49.8002C160.183 49.5802 159.793 49.6902 159.573 50.1302L157.503 54.4302C157.283 54.8202 157.393 55.2102 157.893 55.4902C159.853 56.6102 162.473 57.6102 167.113 57.6102C173.593 57.6102 177.673 54.0902 177.673 49.4002C177.673 46.6602 176.503 44.3702 173.483 42.9202L173.493 42.9502Z" fill="#1A1A1A"/>
<path d="M192.953 31C189.653 31 186.253 31.28 183.963 31.89C183.403 32.06 183.123 32.39 183.123 32.9V69.32C183.123 69.82 183.463 70.21 183.963 70.21H189.663C190.113 70.21 190.503 69.82 190.503 69.32V57.2C191.733 57.54 192.963 57.65 194.413 57.65C198.323 57.65 202.403 56.42 205.023 53.46C206.863 51.34 208.043 48.38 208.043 44.35C208.043 40.32 206.703 37.2 204.463 35.02C201.783 32.34 197.643 31 192.953 31ZM198.703 49.99C197.303 51.22 195.463 51.61 193.623 51.61C192.393 51.61 191.393 51.44 190.493 51.11V37.26C191.443 37.09 192.673 37.04 193.673 37.04C195.853 37.04 197.693 37.77 198.923 39.11C200.043 40.39 200.713 42.13 200.713 44.36C200.713 46.98 199.933 48.88 198.703 50V49.99Z" fill="#1A1A1A"/>
<path d="M231.944 33.9002C229.764 31.5002 226.414 30.9902 223.844 30.9902C219.824 30.9902 216.024 32.1602 213.454 33.7802C212.954 34.1202 212.894 34.4002 213.124 34.9002L214.744 38.4202C215.024 39.0302 215.414 39.0302 215.974 38.7002C217.874 37.6402 220.334 36.6902 222.954 36.6902C224.234 36.6902 225.414 37.0202 226.024 37.8102C226.584 38.4802 226.804 39.4302 226.804 40.7102V41.2702C223.784 41.4902 219.764 41.9402 216.694 43.2802C214.014 44.5102 212.054 46.4602 212.054 49.7602C212.054 52.2702 213.004 54.2902 214.564 55.5702C216.074 56.9102 218.194 57.6402 220.484 57.6402C223.054 57.6402 225.004 57.2502 227.304 55.8002H227.524V56.2502C227.524 56.7002 227.914 57.0902 228.414 57.0902H233.334C233.784 57.0902 234.174 56.7002 234.174 56.2502V40.7202C234.174 37.4802 233.334 35.4702 231.944 33.9102V33.9002ZM226.804 51.1102C225.524 51.8902 224.174 52.1702 222.894 52.1702C220.824 52.1702 219.094 51.3302 219.094 49.5502C219.094 46.8102 223.454 46.3702 226.804 46.2502V51.1102Z" fill="#1A1A1A"/>
<path d="M128.453 19.04H120.353C119.683 19.04 119.123 19.32 118.623 19.88L107.193 31.07V19.88C107.193 19.43 106.853 19.04 106.353 19.04H100.043C99.5433 19.04 99.1533 19.43 99.1533 19.88V56.25C99.1533 56.7 99.5433 57.09 100.043 57.09H106.353C106.853 57.09 107.193 56.7 107.193 56.25V45.06L118.623 56.25C119.123 56.81 119.683 57.09 120.353 57.09H128.453C129.183 57.09 129.463 56.42 128.843 55.81L110.713 38.07L128.843 20.33C129.453 19.72 129.173 19.05 128.453 19.05V19.04Z" fill="#1A1A1A"/>
</svg>
