<svg width="230" height="209" viewBox="0 0 230 209" fill="none" xmlns="http://www.w3.org/2000/svg">
<path d="M216.373 80.55C213.593 78.69 210.513 77.66 207.293 77.66C194.763 77.66 184.573 93.17 184.573 112.24C184.573 131.31 194.763 146.82 207.293 146.82C217.113 146.82 225.493 137.3 228.663 124.01C229.403 120.58 229.793 116.94 229.793 113.18C229.793 99.29 224.393 87.12 216.373 80.55ZM220.313 90.3C220.563 92 220.823 93.71 221.073 95.41C221.323 97.09 221.573 98.78 221.813 100.46C222.053 102.06 222.293 103.66 222.523 105.25C222.773 106.93 223.023 108.62 223.263 110.3C223.343 110.87 223.453 111.44 223.503 112.02C223.533 112.33 223.493 112.65 223.453 112.96C223.073 115.6 222.673 118.23 222.283 120.87C221.923 123.29 221.563 125.7 221.203 128.12C220.863 130.44 220.523 132.77 220.173 135.09C220.163 135.16 220.143 135.22 220.123 135.31C217.273 134.89 214.423 134.47 211.543 134.04C212.353 128.53 213.163 123.03 213.983 117.48C207.993 122.1 202.043 126.68 196.063 131.29C194.303 128.99 192.543 126.7 190.773 124.38C196.023 120.34 201.253 116.31 206.503 112.27C201.253 108.22 196.023 104.19 190.773 100.15C192.543 97.85 194.293 95.56 196.063 93.25C202.033 97.84 207.983 102.43 213.983 107.05C213.933 106.69 213.883 106.37 213.843 106.06C213.603 104.45 213.363 102.84 213.133 101.23C212.913 99.72 212.693 98.22 212.463 96.71C212.233 95.2 212.023 93.7 211.793 92.19C211.723 91.68 211.653 91.18 211.563 90.67C211.543 90.52 211.573 90.47 211.723 90.45C213.513 90.19 215.293 89.92 217.073 89.66C218.083 89.51 219.083 89.36 220.123 89.21C220.203 89.59 220.253 89.95 220.313 90.3Z" fill="white"/>
<path d="M2.60328 101.66C3.27328 89.1 6.49328 77.1999 11.7933 66.3199C4.99328 77.5099 0.833286 90.18 0.113286 103.75C-1.08671 126.23 7.31331 147.28 22.1433 163.83C8.72331 145.99 1.38328 124.47 2.60328 101.66Z" fill="#6FC7BA"/>
<path d="M31.1532 150.45C29.4532 150.97 29.0431 152.05 29.5131 153.78C29.9931 155.55 30.9831 157.04 32.4831 158.01C34.1531 159.09 35.8931 160.25 37.7731 160.77C42.1031 161.97 46.5331 162.82 50.9231 163.77C52.0031 164 53.1231 164.08 54.3031 164.24C54.5631 160.34 55.4031 156.73 57.0631 153.2C53.1831 152.46 49.5031 151.69 45.7931 151.06C42.5031 150.5 39.1931 149.95 35.8731 149.7C34.3431 149.57 32.6832 149.98 31.1532 150.45Z" fill="white"/>
<path d="M62.6737 58.24C62.2937 58.17 61.9237 58.05 61.5537 57.94C60.3037 57.59 59.0537 57.2 57.7937 56.88C53.8537 55.89 49.8637 55.2 45.7837 55.29C43.1337 55.35 40.5837 55.86 38.4137 57.49C36.7437 58.74 35.7137 60.35 36.0137 62.56C36.1037 63.23 36.3337 63.6 37.1137 63.38C37.7237 63.21 38.3637 63.16 38.9937 63.1C45.2037 62.52 51.3737 63.03 57.5337 63.86C61.7137 64.42 65.7137 65.65 69.6537 67.09C69.9937 67.21 70.6337 67.19 70.8037 66.97C72.3737 65.01 74.4937 63.96 76.8137 63.23C77.2037 63.11 77.5937 62.97 77.9837 62.84C76.7637 60.26 77.0337 58.21 79.0237 56.22C79.9037 55.34 80.9637 54.42 82.1037 54.08C84.0337 53.51 84.9937 52.39 85.7637 50.59C86.6337 48.54 87.9837 46.7 89.1637 44.71C89.0337 44.62 88.8137 44.44 88.5737 44.31C81.7237 40.76 74.5237 38.78 66.7237 39.24C57.0037 39.82 49.8037 44.58 44.4937 52.55C44.5637 52.56 44.6637 52.6 44.7637 52.59C50.9037 52.35 56.8037 53.62 62.6237 55.43C62.9237 55.52 63.2237 55.63 63.5137 55.77C64.2437 56.12 64.9737 56.53 64.6437 57.51C64.2937 58.52 63.4537 58.38 62.6737 58.24Z" fill="white"/>
<path d="M86.2832 72.99C82.4732 73.22 78.8631 74.21 75.3731 75.72C75.1331 75.82 74.8831 76.04 74.7631 76.27C73.9631 77.91 73.0332 79.52 72.4632 81.24C71.5032 84.15 72.0232 86.94 73.7232 89.5C74.2832 90.34 74.8632 90.83 75.9632 90.41C76.5332 90.19 77.2232 90.14 77.8432 90.19C80.8232 90.41 83.8031 90.63 86.7731 90.98C88.8131 91.22 90.8232 91.68 93.0932 92.08C87.0432 86.87 85.4631 80.4 86.4831 73.07C86.4131 73.03 86.3432 72.99 86.2832 72.99Z" fill="white"/>
<path d="M56.8437 86.6899C59.8437 89.0799 62.3436 85.9699 62.5036 82.9799C62.6136 80.9599 62.0636 78.6599 60.6236 77.1799C59.5336 76.0599 58.1136 75.8999 56.9936 76.7099C53.9536 78.9199 53.8737 84.3299 56.8437 86.6899Z" fill="#6FC7BA"/>
<path d="M51.883 84.9101C51.133 85.0201 50.523 85.5901 50.513 86.8001C50.503 87.5901 50.713 88.3801 50.883 89.1601C51.373 91.3301 54.293 92.0201 55.113 89.6201C55.483 88.5501 55.143 87.3501 54.573 86.3601C54.013 85.3701 52.823 84.7701 51.883 84.9101Z" fill="#6FC7BA"/>
<path d="M104.053 8.14C123.503 9.26 142.813 16.93 158.413 29.73C173.473 42.08 184.393 58.67 189.343 76.62C193.443 73.86 197.993 72.4 202.723 72.4C204.603 72.4 206.463 72.63 208.273 73.09C194.833 29.92 154.373 0 108.903 0C87.663 0 67.883 6.39999 51.403 17.37C51.043 17.61 51.363 18.17 51.753 17.98C51.773 17.97 51.783 17.96 51.803 17.96C67.223 10.57 85.773 7.08 104.053 8.14Z" fill="#6FC7BA"/>
<path d="M30.9337 42.91C47.2937 28.04 68.4937 19.85 90.6137 19.85C112.094 19.85 132.824 27.62 148.984 41.74C163.344 54.28 173.244 71.04 177.304 89.47C177.394 89.9 177.974 89.97 178.174 89.58C179.104 87.8 180.154 86.1101 181.304 84.5201C182.904 82.3201 184.664 80.39 186.544 78.76C186.684 78.64 186.734 78.46 186.694 78.29C177.004 41.5 142.384 13.34 103.874 11.12C77.1237 9.58004 41.3637 18.26 22.1937 46.57C21.4837 47.64 20.7937 48.72 20.1237 49.81C18.9037 51.84 17.7638 53.96 16.7138 56.18C15.9538 57.78 15.2337 59.4 14.5437 61.06C14.3237 61.6 15.0737 61.98 15.3737 61.49C19.6537 54.68 24.8737 48.42 30.9337 42.91Z" fill="#6FC7BA"/>
<path d="M174.183 89.1999C174.053 89.0499 173.933 88.87 173.833 88.66C172.353 85.55 170.953 82.3899 169.313 79.3499C166.703 74.5199 163.423 70.1499 159.603 66.2099C158.583 65.1599 157.343 64.3099 156.193 63.3899C155.913 63.1699 155.553 63.0399 155.063 63.0299C155.383 63.7899 155.713 64.5499 156.023 65.3199C156.453 66.3599 156.883 67.3999 157.273 68.4599C157.553 69.2399 157.273 69.8799 156.503 70.1799C155.773 70.4699 155.183 70.1899 154.813 69.5099C154.603 69.1099 154.453 68.6699 154.283 68.2399C151.793 61.6899 148.123 55.8399 143.883 50.2899C135.993 39.9899 121.143 33.3799 105.503 38.4899C101.943 39.6599 98.4729 41.0099 95.3329 43.0999C91.9029 45.3799 89.5929 48.5599 87.8829 52.2399C87.8429 52.3299 87.863 52.4399 87.843 52.5799C87.993 52.6099 88.1229 52.6599 88.2529 52.6499C93.5229 52.3799 98.5329 53.68 103.503 55.16C104.663 55.51 105.193 56.24 104.923 57.02C104.663 57.76 103.793 57.9899 102.643 57.7299C99.0729 56.9299 95.523 55.9199 91.913 55.4799C89.553 55.1899 87.0629 55.5499 84.7029 55.9999C83.4029 56.2499 82.1829 57.1799 81.0629 57.9899C80.5229 58.3799 80.153 59.1799 79.973 59.8599C79.493 61.7799 80.073 62.3899 81.973 62.1899C87.393 61.5999 92.7429 62.2499 98.0629 63.1499C103.063 63.9999 108.053 64.9499 112.803 66.8199C113.193 66.9799 113.563 67.21 113.933 67.41C113.923 67.52 113.913 67.6299 113.903 67.7399C113.493 67.8099 113.073 67.9799 112.673 67.9299C109.143 67.5099 105.623 67.0399 102.103 66.5899C97.1829 65.9599 92.2729 65.1899 87.3329 64.7299C83.9929 64.4099 80.6229 64.7799 77.4229 65.8799C76.1429 66.3199 74.8829 66.96 73.8029 67.77C72.4529 68.78 71.8529 70.2599 72.2729 71.9899C72.5929 73.3099 73.1829 73.6199 74.4229 73.1199C77.4729 71.8899 80.5929 70.9199 83.8629 70.4799C90.0429 69.6499 96.183 70.1499 102.283 71.1999C112.913 73.0299 123.243 75.8899 133.163 80.1799C133.773 80.4499 134.403 80.6999 134.963 81.0499C135.643 81.4699 136.083 82.1099 135.673 82.9199C135.253 83.7599 134.493 83.73 133.753 83.41C129.893 81.79 126.053 80.1099 122.163 78.5499C120.643 77.9399 119.033 77.5899 117.323 77.0699C116.073 84.0999 112.343 89.0499 106.043 92.0499C106.093 92.1399 106.143 92.2399 106.183 92.3299C107.493 92.1799 108.823 92.1499 110.093 91.8499C114.403 90.8299 118.813 90.1299 122.863 88.1899C124.453 87.4299 126.003 86.6099 127.593 85.8599C128.033 85.6499 128.533 85.5199 129.013 85.4899C129.313 85.4699 129.763 85.6499 129.883 85.8799C130.013 86.1099 129.913 86.5699 129.763 86.8399C129.553 87.1899 129.223 87.4999 128.883 87.7299C127.973 88.3299 127.073 88.9699 126.093 89.4399C115.953 94.3299 105.393 96.6899 94.093 94.7199C90.103 94.0299 86.0829 93.5099 82.0529 93.0399C80.3529 92.8399 78.5929 92.7999 76.8929 92.9499C74.2229 93.1899 73.4129 95.2499 75.0529 97.3799C76.2629 98.9599 77.9129 99.9699 79.6929 100.79C82.7529 102.2 86.0229 102.7 89.3529 102.83C103.523 103.38 116.643 99.84 128.813 92.66C132.033 90.76 135.213 88.8099 138.413 86.8799C138.703 86.7099 138.993 86.5599 139.473 86.5699C139.233 86.9299 139.013 87.2999 138.753 87.6499C136.633 90.4499 133.923 92.5899 130.983 94.4199C117.633 102.67 103.133 106.44 87.4429 105.4C82.5729 105.07 78.013 103.72 74.223 100.51C71.133 102.85 67.5129 103.72 63.9229 104.57C56.0329 106.44 48.0429 106.95 40.0029 105.61C36.1729 104.97 32.6229 103.55 29.4429 101.17C27.4229 105.63 26.6329 110.33 25.7529 115.14C26.6529 115.32 27.4729 115.43 28.2729 115.66C35.0429 117.62 41.8629 119.4 48.5529 121.61C64.2029 126.78 80.2529 128.03 96.5729 127.05C101.573 126.75 106.573 126.46 111.433 125.15C116.953 123.66 121.973 121 126.963 118.28C132.503 115.27 137.663 111.74 142.293 107.45C143.423 106.4 144.653 105.42 145.953 104.59C149.893 102.07 154.023 103.12 156.293 107.21C158.713 111.56 158.873 116.2 157.913 120.97C156.873 126.19 154.873 131.01 151.933 135.44C147.773 141.73 142.543 146.89 136.123 150.93C130.283 154.6 124.003 157.22 117.553 159.5C108.463 162.7 99.2029 165.29 89.6229 166.52C88.8929 166.61 88.6329 167.03 88.3829 167.61C86.0729 172.89 82.5529 177.16 77.5829 180.13C72.7129 183.04 67.6629 183.78 62.5829 180.68C58.2329 178.03 55.5729 174.13 54.6129 169.11C54.1929 166.9 54.203 166.98 52.033 166.57C48.643 165.93 45.283 165.16 41.903 164.45C41.433 164.35 40.9529 164.24 40.2629 164.09C40.5029 164.53 40.623 164.8 40.783 165.04C47.053 174.63 54.9929 182.51 64.8529 188.39C68.5929 190.62 72.5029 192.46 76.8629 193.17C77.1729 193.22 77.4829 193.3 77.7929 193.39C81.9729 194.02 86.2329 194.35 90.5829 194.35C130.663 194.35 165.843 166.03 174.383 126.97C173.223 122.59 172.623 117.93 172.623 113.15C172.623 107.09 173.593 101.22 175.423 95.8799C175.123 93.6399 174.693 91.3999 174.183 89.1999ZM140.033 96.9399C139.783 96.7399 139.773 96.1299 139.813 95.7099C139.853 95.3499 140.063 94.9699 140.283 94.6699C142.593 91.6199 147.623 86.8799 151.843 87.2099C152.373 87.2499 152.913 87.5399 153.093 88.0299C153.733 89.7199 150.333 89.9099 149.423 90.3299C146.713 91.5999 144.363 93.3399 142.463 95.6799C142.113 96.1099 141.713 96.5499 141.243 96.8099C140.913 97.0199 140.273 97.1299 140.033 96.9399ZM163.723 110.77C162.673 110.94 162.653 109.97 162.433 109.3C162.023 108.07 161.703 106.79 161.193 105.6C159.163 100.87 155.083 98.37 149.973 99.02C148.393 99.22 147.033 100.02 145.553 100.53C145.113 100.68 141.263 101.67 142.483 100.26C144.913 97.4499 148.083 96.5399 151.723 96.6499C158.453 96.8599 163.873 102.03 164.483 108.75C164.493 108.82 164.503 108.89 164.493 108.96C164.483 109.68 164.763 110.6 163.723 110.77Z" fill="white"/>
<path d="M71.6632 93.0101C72.5532 92.8501 72.6032 92.4601 72.0132 91.6801C69.0032 87.7401 68.5532 83.5001 70.4932 78.9701C70.6232 78.6601 70.7532 78.3501 70.9132 77.9701C70.3032 77.8001 69.7832 77.7001 69.2932 77.5201C68.7932 77.3401 68.3332 77.0901 67.7232 76.8101C67.7632 85.2601 63.3732 90.5501 56.2432 94.0801C61.4432 94.3401 66.5732 93.9401 71.6632 93.0101Z" fill="white"/>
<path d="M121.043 155.69C128.723 152.76 135.733 148.69 141.923 143.28C149.263 136.87 154.233 129.04 155.843 119.28C156.433 115.71 156.153 112.25 154.563 108.96C152.863 105.46 150.043 104.71 146.853 106.91C145.873 107.59 144.923 108.34 144.053 109.16C138.973 113.92 133.233 117.72 127.113 120.99C121.013 124.25 114.853 127.47 107.873 128.35C103.023 128.96 98.1328 129.35 93.2428 129.59C77.8328 130.36 62.7228 128.77 47.9828 123.94C41.3228 121.76 34.5428 119.96 27.8028 118.02C26.0628 117.52 24.2629 117.38 22.4729 117.88C20.0929 118.55 18.7728 120.54 19.3028 122.96C19.5428 124.03 20.0329 125.12 20.7029 125.98C21.6229 127.16 22.7329 128.23 23.9029 129.18C28.0629 132.53 32.9328 134.48 38.1028 135.37C45.1828 136.58 52.3129 137.5 59.4629 138.26C73.6929 139.78 87.8729 139.47 101.973 136.72C113.173 134.54 123.573 130.6 132.633 123.51C135.763 121.06 138.943 118.66 142.123 116.26C143.103 115.52 144.093 114.75 145.173 114.18C146.903 113.26 148.353 114.03 148.643 115.97C148.753 116.72 148.773 117.54 148.613 118.28C148.273 119.86 147.953 121.48 147.333 122.95C145.343 127.61 142.833 131.95 139.323 135.67C132.543 142.86 124.213 147.46 114.893 150.42C108.393 152.48 101.713 153.75 94.9529 154.56C94.4429 154.62 93.6729 154.81 93.5129 155.16C92.2029 158.03 91.0128 160.95 89.6728 164.11C90.5428 164 91.0528 163.95 91.5628 163.87C101.713 162.32 111.463 159.34 121.043 155.69Z" fill="white"/>
<path d="M72.9435 154.53C74.3635 150.92 76.8934 148.24 79.9834 146.02C80.2934 145.8 80.5935 145.57 81.1435 145.18C80.0335 144.91 79.2235 144.69 78.4035 144.52C72.8935 143.35 62.5535 147.06 59.2435 154.3C56.7035 159.86 55.6135 165.62 57.8235 171.53C60.9635 179.93 69.3435 182.64 76.8735 177.84C80.2035 175.72 82.9435 172.98 84.7835 169.49C86.0335 167.13 86.9635 164.61 88.0035 162.15C89.1035 159.52 90.0534 156.82 91.2934 154.25C91.8634 153.06 92.8835 152.05 93.8335 151.08C94.3935 150.5 95.2534 150.56 95.6134 151.36C95.9534 152.11 96.4235 152.01 96.9735 151.91C99.7135 151.44 102.453 150.96 105.193 150.48C105.463 150.43 105.713 150.33 106.073 150.22C105.823 149.94 105.653 149.71 105.453 149.53C99.6835 144.65 89.7135 141.69 80.9735 148.27C77.9835 150.52 75.6035 153.34 73.4335 156.35C73.2135 156.65 72.8434 156.84 72.5434 157.08C72.5134 156.7 72.4134 156.3 72.4834 155.93C72.5634 155.45 72.7635 154.99 72.9435 154.53Z" fill="#6FC7BA"/>
<path d="M108.493 87.4C109.213 87.12 109.863 86.63 110.403 85.91C113.133 82.25 111.223 74.93 106.003 75.1C101.953 75.23 100.833 80.01 101.403 83.28C101.983 86.48 105.673 88.52 108.493 87.4Z" fill="#6FC7BA"/>
<path d="M188.924 138.59C184.184 131.53 181.574 122.18 181.574 112.25C181.574 102.32 184.184 92.97 188.924 85.91C192.594 80.45 197.204 76.84 202.244 75.39C187.534 75.75 175.644 92.56 175.644 113.18C175.644 134.02 187.784 150.98 202.714 150.98C205.204 150.98 207.614 150.51 209.904 149.63C209.044 149.76 208.164 149.82 207.284 149.82C200.304 149.82 193.784 145.83 188.924 138.59Z" fill="#6FC7BA"/>
<path d="M29.3432 69.52C28.4932 70.29 28.6432 71.09 29.6532 71.67C30.3132 72.04 31.0732 72.33 31.8232 72.42C33.1832 72.59 34.5631 72.65 35.9331 72.65C39.3831 72.65 42.8331 72.53 46.2931 72.59C52.9831 72.71 59.6832 72.82 66.2832 74.13C67.7232 74.42 69.1632 74.72 70.7232 75.04C70.3632 74.28 69.9732 73.69 69.7832 73.04C69.5732 72.34 69.4532 71.59 69.4732 70.86C69.4932 70.2 69.2731 69.97 68.6731 69.75C59.7331 66.55 50.4732 65.43 41.0332 65.65C38.0132 65.72 35.0731 66.36 32.3031 67.56C31.2331 68.03 30.2132 68.73 29.3432 69.52Z" fill="white"/>
<path d="M220.134 135.34C220.154 135.25 220.174 135.18 220.184 135.12C220.524 132.8 220.864 130.47 221.214 128.15C221.574 125.73 221.934 123.32 222.294 120.9C222.684 118.26 223.074 115.63 223.464 112.99C223.514 112.68 223.544 112.36 223.514 112.05C223.464 111.47 223.354 110.9 223.274 110.33C223.024 108.64 222.784 106.96 222.534 105.28C222.294 103.68 222.054 102.08 221.824 100.49C221.574 98.81 221.324 97.12 221.084 95.44C220.834 93.74 220.584 92.03 220.324 90.33C220.274 89.97 220.214 89.62 220.154 89.25C219.114 89.4 218.114 89.55 217.104 89.7C215.324 89.96 213.534 90.23 211.754 90.49C211.604 90.51 211.564 90.56 211.594 90.71C211.674 91.21 211.744 91.72 211.824 92.23C212.044 93.74 212.264 95.24 212.494 96.75C212.714 98.26 212.934 99.76 213.164 101.27C213.404 102.88 213.644 104.49 213.874 106.1C213.924 106.41 213.964 106.73 214.014 107.09C208.014 102.47 202.064 97.89 196.094 93.29C194.324 95.6 192.564 97.89 190.804 100.19C196.054 104.24 201.284 108.27 206.534 112.31C201.284 116.35 196.054 120.38 190.804 124.42C192.574 126.74 194.334 129.03 196.094 131.33C202.074 126.72 208.024 122.14 214.014 117.52C213.194 123.08 212.384 128.57 211.574 134.08C214.434 134.5 217.284 134.92 220.134 135.34Z" fill="#6FC7BA"/>
<path d="M177.193 161.13C180.223 156.46 182.743 151.33 184.713 145.89C183.513 144.67 182.373 143.32 181.303 141.85C179.233 139 177.513 135.81 176.163 132.37C171.293 149.91 160.993 165.73 146.793 177.35C139.033 183.7 130.343 188.65 120.963 192.06C111.253 195.59 101.043 197.38 90.6229 197.38C67.1129 197.38 44.9629 188.28 28.2329 171.76C26.7629 170.31 25.3529 168.81 24.0029 167.28C32.3229 178.09 43.0929 187.13 55.8129 193.57C68.8729 200.18 82.9629 203.53 97.7029 203.53C129.293 203.53 160.493 186.88 177.193 161.13Z" fill="#6FC7BA"/>
<path d="M179.703 162.75C171.143 175.95 158.873 187.03 144.203 194.79C129.713 202.46 113.633 206.51 97.7029 206.51C94.6029 206.51 91.5429 206.36 88.5029 206.08C95.1829 207.41 102.013 208.09 108.903 208.09C147.203 208.09 182.003 187.36 200.283 153.83C195.563 153.32 191.073 151.35 187.103 148.06C185.123 153.3 182.633 158.23 179.703 162.75Z" fill="#6FC7BA"/>
<path d="M31.9132 99.57C34.2933 101.34 37.0732 102.3 39.9532 102.89C45.4032 104 50.8832 103.8 56.3632 103.23C62.0032 102.65 67.3932 101.13 72.5932 98.86C72.2032 97.9 71.8032 96.94 71.3832 95.91C71.1932 95.92 70.9532 95.93 70.7132 95.95C67.2432 96.19 63.7632 96.56 60.2932 96.65C51.7732 96.87 43.3532 95.79 34.9732 94.35C33.6032 94.12 32.1632 94.08 30.7832 94.25C29.2332 94.44 28.6732 95.63 29.5032 96.96C30.1232 97.96 30.9832 98.88 31.9132 99.57Z" fill="white"/>
<path d="M27.1134 83.98C27.9034 88.17 30.8334 90.97 34.9934 91.61C35.9334 91.75 36.8334 92.09 37.7634 92.24C40.1934 92.64 42.6334 92.99 45.0634 93.35C39.0934 88.78 37.4234 82.59 37.7034 75.51C35.5834 75.38 33.5134 75.33 31.4534 75.09C30.6134 75 30.0334 75.18 29.4634 75.72C27.0534 78.02 26.5234 80.86 27.1134 83.98Z" fill="white"/>
<path d="M98.0732 90.62C99.0232 90.68 99.8332 90.11 100.113 89.13C100.423 88.04 100.173 87.03 99.4932 86.14C98.9432 85.42 98.2032 85.01 97.2732 85.34C96.3432 85.66 96.0632 86.44 96.0332 87.37C96.0832 87.83 96.1432 88.32 96.2032 88.81C96.3332 89.86 97.0432 90.55 98.0732 90.62Z" fill="#6FC7BA"/>
</svg>
