<svg width="606" height="606" viewBox="0 0 606 606" fill="none" xmlns="http://www.w3.org/2000/svg">
<circle cx="302.499" cy="302.125" r="299.5" transform="rotate(120 302.499 302.125)" stroke="url(#paint0_linear_1122_623)" stroke-width="4"/>
<path d="M192.573 80.5666C190.114 75.6214 192.122 69.6002 197.158 67.3345C224.966 54.8256 254.797 47.3342 285.269 45.2351C319.07 42.9069 352.999 47.259 385.118 58.043C417.237 68.827 446.917 85.8318 472.465 108.086C498.012 130.341 518.926 157.409 534.012 187.746C549.098 218.083 558.061 251.095 560.389 284.896C562.717 318.697 558.365 352.625 547.581 384.744C536.797 416.863 519.792 446.544 497.538 472.091C477.475 495.122 453.499 514.388 426.743 529.013C421.897 531.662 415.884 529.629 413.425 524.684L351.746 400.652C349.287 395.707 351.336 389.746 356.009 386.803C364.207 381.641 371.622 375.299 378.009 367.967C386.589 358.117 393.146 346.673 397.304 334.288C401.462 321.904 403.14 308.822 402.243 295.789C401.345 282.756 397.889 270.028 392.072 258.331C386.255 246.633 378.191 236.196 368.341 227.616C358.491 219.035 347.046 212.478 334.662 208.32C322.278 204.162 309.196 202.484 296.163 203.382C286.462 204.05 276.931 206.135 267.867 209.557C262.7 211.507 256.711 209.543 254.252 204.598L192.573 80.5666Z" fill="#7AC5B7"/>
<path d="M407.063 526.378C409.462 531.353 407.38 537.349 402.316 539.553C362.979 556.673 319.939 563.735 277.094 560.023C234.248 556.312 193.064 541.954 157.257 518.324C152.647 515.282 151.627 509.017 154.846 504.529L235.565 391.957C238.783 387.468 245.009 386.488 249.798 389.239C262.323 396.436 276.303 400.84 290.775 402.094C305.246 403.347 319.775 401.413 333.352 396.477C338.542 394.59 344.507 396.627 346.905 401.602L407.063 526.378Z" fill="#5BC7B3"/>
<path d="M145.968 498.959C142.542 503.291 136.238 504.038 132.043 500.447C100.088 473.086 75.3063 438.323 59.8615 399.194C57.8339 394.056 60.5961 388.341 65.808 386.514L196.529 340.688C201.741 338.861 207.402 341.632 209.743 346.635C214.862 357.573 221.931 367.49 230.603 375.896C234.568 379.74 235.343 385.995 231.916 390.326L145.968 498.959Z" fill="#43C9B0"/>
<path d="M62.6608 379.694C57.3968 381.365 51.755 378.457 50.2894 373.132C39.0954 332.463 38.044 289.666 47.2274 248.497C48.4298 243.107 53.9219 239.924 59.2616 241.335L193.19 276.708C198.53 278.119 201.662 283.588 200.795 289.043C198.891 301.013 199.191 313.232 201.68 325.094C202.814 330.499 199.955 336.116 194.691 337.787L62.6608 379.694Z" fill="#2ECDAF"/>
<g filter="url(#filter0_d_1122_623)">
<path d="M88.6664 171.435C83.9636 168.539 82.4824 162.367 85.5582 157.78C93.9277 145.298 103.372 133.572 113.783 122.734C117.609 118.751 123.954 118.883 127.786 122.861L223.889 222.622C227.72 226.6 227.558 232.901 223.985 237.112C222.889 238.404 221.826 239.724 220.797 241.071C217.444 245.459 211.322 246.961 206.619 244.065L88.6664 171.435Z" fill="#17ECC4"/>
</g>
<g filter="url(#filter1_d_1122_623)">
<path d="M60.7867 234.838C55.4709 233.339 52.3571 227.808 54.0602 222.555C58.6445 208.413 64.4427 194.693 71.3898 181.55C73.9707 176.667 80.1072 175.045 84.8863 177.814L204.752 247.242C209.531 250.01 211.111 256.111 208.837 261.144C208.164 262.632 207.529 264.136 206.93 265.655C204.906 270.793 199.429 273.913 194.114 272.415L60.7867 234.838Z" fill="#26D9B8"/>
</g>
<g filter="url(#filter2_d_1122_623)">
<path d="M133.613 118.304C129.843 114.268 130.046 107.925 134.225 104.314C145.556 94.5228 157.718 85.7369 170.573 78.0558C175.314 75.223 181.401 77.0237 184.048 81.8709L250.437 203.446C253.084 208.294 251.265 214.329 246.708 217.449C245.327 218.395 243.969 219.375 242.637 220.39C238.243 223.736 231.942 223.566 228.172 219.53L133.613 118.304Z" fill="#0DFFD1"/>
</g>
<path d="M446.788 214V190.78C446.524 190.924 446.224 191.068 445.888 191.212C445.552 191.356 445.192 191.512 444.808 191.68C444.448 191.824 444.088 191.968 443.728 192.112C443.392 192.256 443.08 192.4 442.792 192.544V188.08C443.056 187.936 443.428 187.744 443.908 187.504C444.388 187.24 444.904 186.952 445.456 186.64C446.008 186.328 446.524 186.016 447.004 185.704C447.484 185.368 447.844 185.08 448.084 184.84H452.8V214H446.788Z" fill="white"/>
<path d="M276.476 495V490.752L283.46 480.024C283.988 479.232 284.48 478.464 284.936 477.72C285.416 476.976 285.8 476.22 286.088 475.452C286.4 474.684 286.556 473.88 286.556 473.04C286.556 472.2 286.388 471.576 286.052 471.168C285.716 470.76 285.26 470.556 284.684 470.556C284.036 470.556 283.532 470.736 283.172 471.096C282.812 471.456 282.56 471.936 282.416 472.536C282.296 473.136 282.236 473.808 282.236 474.552V475.992H276.404V474.444C276.404 472.716 276.68 471.18 277.232 469.836C277.784 468.468 278.66 467.4 279.86 466.632C281.06 465.84 282.632 465.444 284.576 465.444C287.192 465.444 289.16 466.128 290.48 467.496C291.824 468.84 292.496 470.724 292.496 473.148C292.496 474.324 292.304 475.416 291.92 476.424C291.56 477.432 291.068 478.416 290.444 479.376C289.844 480.312 289.196 481.296 288.5 482.328L283.172 490.284H291.704V495H276.476Z" fill="white"/>
<path d="M185.34 157L191.676 132.412H183.72V127.84H197.544V131.98L191.208 157H185.34Z" fill="white"/>
<path d="M149.936 194.432C148.04 194.432 146.492 194.024 145.292 193.208C144.116 192.368 143.252 191.228 142.7 189.788C142.148 188.348 141.872 186.704 141.872 184.856V174.308C141.872 172.412 142.088 170.72 142.52 169.232C142.976 167.744 143.78 166.58 144.932 165.74C146.084 164.876 147.74 164.444 149.9 164.444C151.772 164.444 153.248 164.732 154.328 165.308C155.408 165.884 156.176 166.724 156.632 167.828C157.088 168.932 157.316 170.3 157.316 171.932C157.316 172.028 157.316 172.124 157.316 172.22C157.34 172.292 157.352 172.364 157.352 172.436H151.7C151.7 171.26 151.604 170.396 151.412 169.844C151.244 169.268 150.752 168.98 149.936 168.98C149.384 168.98 148.964 169.148 148.676 169.484C148.412 169.82 148.232 170.408 148.136 171.248C148.04 172.088 147.992 173.264 147.992 174.776V177.368C148.28 176.864 148.748 176.48 149.396 176.216C150.044 175.928 150.776 175.772 151.592 175.748C153.128 175.7 154.352 176.048 155.264 176.792C156.2 177.536 156.872 178.556 157.28 179.852C157.688 181.124 157.892 182.552 157.892 184.136C157.892 186.176 157.652 187.976 157.172 189.536C156.692 191.072 155.876 192.272 154.724 193.136C153.572 194 151.976 194.432 149.936 194.432ZM150.008 190.004C150.56 190.004 150.956 189.824 151.196 189.464C151.46 189.08 151.628 188.528 151.7 187.808C151.796 187.064 151.844 186.152 151.844 185.072C151.844 184.112 151.808 183.284 151.736 182.588C151.688 181.892 151.532 181.352 151.268 180.968C151.004 180.56 150.56 180.356 149.936 180.356C149.648 180.356 149.372 180.416 149.108 180.536C148.844 180.656 148.616 180.812 148.424 181.004C148.232 181.172 148.088 181.34 147.992 181.508V186.26C147.992 186.908 148.04 187.52 148.136 188.096C148.256 188.672 148.46 189.14 148.748 189.5C149.06 189.836 149.48 190.004 150.008 190.004Z" fill="white"/>
<path d="M120.18 240.54C118.044 240.54 116.424 240.168 115.32 239.424C114.24 238.656 113.508 237.588 113.124 236.22C112.74 234.852 112.548 233.268 112.548 231.468H118.344C118.344 232.572 118.404 233.472 118.524 234.168C118.644 234.864 118.86 235.368 119.172 235.68C119.508 235.968 119.976 236.1 120.576 236.076C121.2 236.052 121.644 235.8 121.908 235.32C122.172 234.84 122.328 234.156 122.376 233.268C122.448 232.356 122.484 231.264 122.484 229.992C122.484 229.032 122.424 228.18 122.304 227.436C122.208 226.692 121.992 226.104 121.656 225.672C121.344 225.216 120.864 224.988 120.216 224.988C119.616 224.988 119.124 225.204 118.74 225.636C118.356 226.068 118.08 226.74 117.912 227.652H112.728L113.268 210.84H126.876V215.88H118.092L117.768 221.892C118.008 221.556 118.464 221.268 119.136 221.028C119.808 220.764 120.528 220.596 121.296 220.524C122.784 220.356 124.032 220.632 125.04 221.352C126.072 222.048 126.84 223.116 127.344 224.556C127.872 225.996 128.136 227.76 128.136 229.848C128.136 231.408 128.04 232.848 127.848 234.168C127.656 235.464 127.284 236.592 126.732 237.552C126.18 238.488 125.376 239.22 124.32 239.748C123.264 240.276 121.884 240.54 120.18 240.54Z" fill="white"/>
<path d="M110.864 322V315.448H101.9V311.02L109.496 292.84H116.48V310.984H119.18V315.448H116.48V322H110.864ZM106.472 310.984H110.864V298.852L106.472 310.984Z" fill="white"/>
<path d="M149.396 424.54C147.356 424.54 145.748 424.156 144.572 423.388C143.42 422.62 142.592 421.552 142.088 420.184C141.608 418.792 141.368 417.196 141.368 415.396V414.352H147.38C147.38 414.376 147.38 414.508 147.38 414.748C147.38 414.988 147.38 415.204 147.38 415.396C147.38 416.356 147.44 417.136 147.56 417.736C147.68 418.336 147.896 418.78 148.208 419.068C148.52 419.332 148.952 419.464 149.504 419.464C150.056 419.464 150.464 419.32 150.728 419.032C151.016 418.744 151.208 418.312 151.304 417.736C151.4 417.16 151.448 416.44 151.448 415.576C151.448 414.136 151.244 413.044 150.836 412.3C150.452 411.532 149.636 411.136 148.388 411.112C148.364 411.112 148.232 411.112 147.992 411.112C147.752 411.112 147.512 411.112 147.272 411.112V406.972C147.44 406.972 147.608 406.972 147.776 406.972C147.944 406.972 148.1 406.972 148.244 406.972C149.516 406.972 150.368 406.624 150.8 405.928C151.232 405.232 151.448 404.152 151.448 402.688C151.448 401.56 151.292 400.696 150.98 400.096C150.692 399.496 150.14 399.196 149.324 399.196C148.532 399.196 148.004 399.532 147.74 400.204C147.5 400.876 147.38 401.74 147.38 402.796C147.38 403.036 147.38 403.288 147.38 403.552C147.38 403.792 147.38 404.044 147.38 404.308H141.368V402.544C141.368 400.792 141.68 399.316 142.304 398.116C142.952 396.892 143.864 395.968 145.04 395.344C146.24 394.72 147.668 394.408 149.324 394.408C151.004 394.408 152.444 394.708 153.644 395.308C154.844 395.908 155.768 396.796 156.416 397.972C157.064 399.124 157.388 400.564 157.388 402.292C157.388 403.996 157.04 405.424 156.344 406.576C155.648 407.728 154.808 408.436 153.824 408.7C154.496 408.94 155.096 409.324 155.624 409.852C156.176 410.38 156.608 411.1 156.92 412.012C157.232 412.9 157.388 414.04 157.388 415.432C157.388 417.208 157.124 418.78 156.596 420.148C156.092 421.516 155.252 422.596 154.076 423.388C152.9 424.156 151.34 424.54 149.396 424.54Z" fill="white"/>
<defs>
<filter id="filter0_d_1122_623" x="49.9453" y="89.8115" width="210.769" height="193.743" filterUnits="userSpaceOnUse" color-interpolation-filters="sRGB">
<feFlood flood-opacity="0" result="BackgroundImageFix"/>
<feColorMatrix in="SourceAlpha" type="matrix" values="0 0 0 0 0 0 0 0 0 0 0 0 0 0 0 0 0 0 127 0" result="hardAlpha"/>
<feOffset dy="4"/>
<feGaussianBlur stdDeviation="17"/>
<feComposite in2="hardAlpha" operator="out"/>
<feColorMatrix type="matrix" values="0 0 0 0 0 0 0 0 0 0 0 0 0 0 0 0 0 0 0.25 0"/>
<feBlend mode="normal" in2="BackgroundImageFix" result="effect1_dropShadow_1122_623"/>
<feBlend mode="normal" in="SourceGraphic" in2="effect1_dropShadow_1122_623" result="shape"/>
</filter>
<filter id="filter1_d_1122_623" x="19.5928" y="146.467" width="224.268" height="164.324" filterUnits="userSpaceOnUse" color-interpolation-filters="sRGB">
<feFlood flood-opacity="0" result="BackgroundImageFix"/>
<feColorMatrix in="SourceAlpha" type="matrix" values="0 0 0 0 0 0 0 0 0 0 0 0 0 0 0 0 0 0 127 0" result="hardAlpha"/>
<feOffset dy="4"/>
<feGaussianBlur stdDeviation="17"/>
<feComposite in2="hardAlpha" operator="out"/>
<feColorMatrix type="matrix" values="0 0 0 0 0 0 0 0 0 0 0 0 0 0 0 0 0 0 0.25 0"/>
<feBlend mode="normal" in2="BackgroundImageFix" result="effect1_dropShadow_1122_623"/>
<feBlend mode="normal" in="SourceGraphic" in2="effect1_dropShadow_1122_623" result="shape"/>
</filter>
<filter id="filter2_d_1122_623" x="96.9297" y="46.7076" width="188.733" height="214.034" filterUnits="userSpaceOnUse" color-interpolation-filters="sRGB">
<feFlood flood-opacity="0" result="BackgroundImageFix"/>
<feColorMatrix in="SourceAlpha" type="matrix" values="0 0 0 0 0 0 0 0 0 0 0 0 0 0 0 0 0 0 127 0" result="hardAlpha"/>
<feOffset dy="4"/>
<feGaussianBlur stdDeviation="17"/>
<feComposite in2="hardAlpha" operator="out"/>
<feColorMatrix type="matrix" values="0 0 0 0 0 0 0 0 0 0 0 0 0 0 0 0 0 0 0.25 0"/>
<feBlend mode="normal" in2="BackgroundImageFix" result="effect1_dropShadow_1122_623"/>
<feBlend mode="normal" in="SourceGraphic" in2="effect1_dropShadow_1122_623" result="shape"/>
</filter>
<linearGradient id="paint0_linear_1122_623" x1="532.999" y1="112.625" x2="39.4988" y2="440.625" gradientUnits="userSpaceOnUse">
<stop stop-color="#5BB6A5"/>
<stop offset="0.5" stop-color="#3A8476"/>
<stop offset="0.97431" stop-color="#5FB7A6"/>
<stop offset="1" stop-color="#00F8CA"/>
</linearGradient>
</defs>
</svg>
